<svg width="200" height="73" viewBox="0 0 200 73" fill="none" xmlns="http://www.w3.org/2000/svg">
<path d="M4.90625 59V14.3125H24.9062C34.0312 14.3125 38.5938 18.5104 38.5938 26.9062C38.5938 36.0104 32.3542 41.5208 19.875 43.4375L18.6875 36.0625C26.1875 34.7083 29.9375 31.7396 29.9375 27.1562C29.9375 23.4479 28.0833 21.5938 24.375 21.5938H13.1875V59H4.90625ZM44.0938 41.4375V14.3125H52.375V41.4375C52.375 48.5625 56.0208 52.125 63.3125 52.125C70.6042 52.125 74.25 48.5625 74.25 41.4375V14.3125H82.5312V41.4375C82.5312 53.3542 76.125 59.3125 63.3125 59.3125C50.5 59.3125 44.0938 53.3542 44.0938 41.4375ZM100.188 14.3125V51.8125H117.938V59H91.9062V14.3125H100.188ZM125 57.125V49.625C129.479 51.2917 134.542 52.125 140.188 52.125C147.042 52.125 150.469 49.8333 150.469 45.25C150.469 41.9167 148.365 40.25 144.156 40.25H137.156C128.01 40.25 123.438 36.0833 123.438 27.75C123.438 18.5833 129.948 14 142.969 14C147.969 14 152.708 14.7292 157.188 16.1875V23.6875C152.708 22.0208 147.969 21.1875 142.969 21.1875C135.469 21.1875 131.719 23.375 131.719 27.75C131.719 31.0833 133.531 32.75 137.156 32.75H144.156C153.885 32.75 158.75 36.9167 158.75 45.25C158.75 54.625 152.562 59.3125 140.188 59.3125C134.542 59.3125 129.479 58.5833 125 57.125ZM196.375 14.3125V21.4375H174V32.6875H195.312V40.0938H173.906V51.8125H196.812V59H165.781V14.3125H196.375Z" fill="white"/>
<rect y="31" width="200" height="7" fill="#034567"/>
<ellipse cx="9" cy="5.5" rx="6" ry="5.5" fill="white"/>
<ellipse cx="170" cy="5.5" rx="6" ry="5.5" fill="white"/>
<rect y="37" width="200" height="7" fill="#034567"/>
<path d="M7 43.5L13 32L20.5 43.5L29 32L34.5 43.5L39 32L44.5 45L52 32L62 51L75.5 32L81 43.5L92.5 32L98 43.5" stroke="white"/>
<rect x="181" y="32" width="13" height="8" fill="white"/>
</svg>
